<?xml version="1.0" encoding="UTF-8"?> <svg xmlns="http://www.w3.org/2000/svg" xmlns:xlink="http://www.w3.org/1999/xlink" viewBox="0 0 530.89 191.01"> <defs> <style>.cls-1{fill:none;clip-rule:evenodd;}.cls-2{fill:#35a9e1;}.cls-3{fill:#2f3587;}.cls-4{fill:#544f4e;}.cls-5{clip-path:url(#clip-path);}.cls-6{fill:url(#Безымянный_градиент);}</style> <clipPath id="clip-path"> <polygon class="cls-1" points="128.86 188.26 63.09 117.03 63.09 117.03 109.91 61.91 76.49 61.91 45.33 99.23 45.3 99.2 27.34 120.7 27.34 63.37 51.69 34.72 57.4 39.54 63.27 0 25.1 12.26 30.82 17.09 0.04 53.31 0 82.04 0.09 81.98 0.25 191.01 0.26 191 0.26 191.01 45.15 138.17 79.39 174.88 10.3 188.26 128.86 188.26"></polygon> </clipPath> <linearGradient id="Безымянный_градиент" y1="95.5" x2="128.86" y2="95.5" gradientUnits="userSpaceOnUse"> <stop offset="0" stop-color="#2f3587"></stop> <stop offset="0.11" stop-color="#2f3587"></stop> <stop offset="1" stop-color="#33a9e1"></stop> </linearGradient> </defs> <g id="Слой_2" data-name="Слой 2"> <g id="Слой_1-2" data-name="Слой 1"> <polygon class="cls-2" points="103.44 185.47 49.76 161.22 45.31 166.16 40.78 163.36 10.33 188.26 34.14 183.64 103.44 185.47"></polygon> <path class="cls-3" d="M149.76,67.81v-55H187V24.33H163.78v8.55h9.78q8.34,0,13.51,4.92a16.71,16.71,0,0,1,5.17,12.62A16.45,16.45,0,0,1,187.07,63q-5.17,4.84-13.51,4.84Zm14-11.54h7.13a7.81,7.81,0,0,0,5.22-1.57A5.34,5.34,0,0,0,178,50.42a5.55,5.55,0,0,0-1.88-4.35,8,8,0,0,0-5.42-1.65h-6.89Z"></path> <path class="cls-3" d="M198.33,64.58l6.09-10.08c2.3,1.85,4.42,2.77,6.34,2.77a4.49,4.49,0,0,0,4.56-2.85L193.2,12.79h15.39l9.54,19.78L221.25,40h.17q.87-3.47,2.24-7.31l7.05-19.86h14.76L228.55,54a47.64,47.64,0,0,1-2.44,5.12,30.36,30.36,0,0,1-3.29,4.58,14,14,0,0,1-4.93,3.69,15.59,15.59,0,0,1-6.5,1.31,23,23,0,0,1-13.06-4.16"></path> <path class="cls-3" d="M239.32,56.66h6q7.33-12.25,7.34-30.77V12.79h39.07V56.66h6.46V79.05H285.66V68.21H252.32V79.05h-13Zm20.43,0h17.84V24.42H266V27a86.77,86.77,0,0,1-1.49,15.74A45.35,45.35,0,0,1,259.75,56.66Z"></path> <path class="cls-3" d="M306.94,64.58,313,54.5q3.45,2.78,6.34,2.77a4.49,4.49,0,0,0,4.56-2.85L301.81,12.79H317.2l9.54,19.78L329.86,40H330q.87-3.47,2.24-7.31l7.05-19.86h14.75L337.16,54a45.75,45.75,0,0,1-2.45,5.12,30.25,30.25,0,0,1-3.28,4.58,14,14,0,0,1-4.93,3.69,15.59,15.59,0,0,1-6.5,1.31,23,23,0,0,1-13.06-4.16"></path> <polygon class="cls-3" points="359.2 67.81 359.2 12.79 373.23 12.79 373.23 56.35 387.66 56.35 387.66 12.79 401.69 12.79 401.69 56.35 416.12 56.35 416.12 12.79 430.14 12.79 430.14 56.35 437.19 56.35 437.19 78.58 424.77 78.58 424.77 67.81 359.2 67.81"></polygon> <polygon class="cls-3" points="445.77 67.81 445.77 12.79 481.68 12.79 481.68 24.34 459.79 24.34 459.79 34.34 477.27 34.34 477.27 45.88 459.79 45.88 459.79 56.27 482.8 56.27 482.8 67.81 445.77 67.81"></polygon> <polygon class="cls-3" points="491.94 67.81 491.94 12.79 527.85 12.79 527.85 24.34 505.96 24.34 505.96 34.34 523.44 34.34 523.44 45.88 505.96 45.88 505.96 56.27 528.97 56.27 528.97 67.81 491.94 67.81"></polygon> <polygon class="cls-3" points="149.76 149.29 149.76 91.29 164.54 91.29 164.54 113.68 170.62 113.68 183.13 91.29 199.02 91.29 182.71 119.03 182.71 119.2 199.95 149.29 183.38 149.29 170.62 125.77 164.54 125.77 164.54 149.29 149.76 149.29"></polygon> <path class="cls-3" d="M200.2,149.29l20.53-58h15.55l20.53,58H241.6l-3.72-12.17H219l-3.63,12.17Zm22.31-23.53h11.91L231,114.49l-2.45-10h-.17q-1.35,6.33-2.45,10Z"></path> <path class="cls-3" d="M262.89,149.29v-58h22.23q9.3,0,14.91,3.94a12.87,12.87,0,0,1,5.62,11.23,14.47,14.47,0,0,1-1.85,7.1,13.24,13.24,0,0,1-5.16,5.23V119a11.94,11.94,0,0,1,7.14,5.08,14.71,14.71,0,0,1,2.33,8q0,8.83-6.52,13t-16.47,4.22Zm14.79-35.53h7.61a5,5,0,0,0,4-1.54,5.54,5.54,0,0,0,1.35-3.81,4.8,4.8,0,0,0-1.39-3.57,5.73,5.73,0,0,0-4.19-1.38h-7.35Zm0,23.36h8.88a6.27,6.27,0,0,0,4.73-1.74A6,6,0,0,0,293,131a5.92,5.92,0,0,0-1.6-4.26,6.29,6.29,0,0,0-4.74-1.66h-9Z"></path> <polygon class="cls-3" points="317.57 149.29 317.57 91.29 332.36 91.29 332.36 113.68 338.44 113.68 350.95 91.29 366.84 91.29 350.53 119.03 350.53 119.2 367.76 149.29 351.2 149.29 338.44 125.77 332.36 125.77 332.36 149.29 317.57 149.29"></polygon> <path class="cls-3" d="M368,149.29l20.54-58h15.54l20.54,58H409.42l-3.72-12.17H386.86l-3.64,12.17Zm22.31-23.53h11.92l-3.38-11.27-2.46-10h-.16c-.91,4.22-1.72,7.55-2.46,10Z"></path> <path class="cls-3" d="M425.64,141.42l7.69-9.33q6.17,5.76,12.85,5.76,7.94,0,7.94-6.49,0-5.67-7.1-5.67h-7.27V114.41h5.91a7.41,7.41,0,0,0,5.12-1.7,5.36,5.36,0,0,0,1.9-4.14,5.57,5.57,0,0,0-1.9-4.42,7.62,7.62,0,0,0-5.2-1.66q-6.25,0-12.5,4.78l-5.66-10.13q8.54-6.83,20.95-6.82a24.78,24.78,0,0,1,9,1.66,17.22,17.22,0,0,1,7.31,5.52,14.38,14.38,0,0,1,3,9.2q0,8.2-7.86,12.66v.16a13.93,13.93,0,0,1,6.94,4.83,13,13,0,0,1,2.53,8.07,15.57,15.57,0,0,1-6.26,13,24.29,24.29,0,0,1-15.29,4.83,30.3,30.3,0,0,1-22.14-8.85"></path> <path class="cls-3" d="M471.7,149.29l20.53-58h15.54l20.54,58H513.1l-3.72-12.17H490.54l-3.64,12.17ZM494,125.76h11.92l-3.38-11.27-2.45-10h-.17c-.91,4.22-1.72,7.55-2.46,10Z"></path> <polygon class="cls-4" points="162.99 173.51 163.44 173.51 167.64 185.88 165.98 185.88 162.92 176.78 158.16 185.88 157.86 185.88 153.09 176.76 150.04 185.88 148.38 185.88 152.6 173.51 153.04 173.51 158.02 183.19 162.99 173.51"></polygon> <path class="cls-4" d="M180.43,181.77l1.35.71a7.3,7.3,0,0,1-1.53,2.09,6.19,6.19,0,0,1-1.95,1.21,6.68,6.68,0,0,1-2.44.41,5.93,5.93,0,0,1-4.74-2,6.72,6.72,0,0,1-1.7-4.48,6.64,6.64,0,0,1,1.44-4.2,5.92,5.92,0,0,1,4.91-2.34,6.11,6.11,0,0,1,5,2.4,6.7,6.7,0,0,1,1.37,4.23H171.05a5,5,0,0,0,1.38,3.53,4.39,4.39,0,0,0,3.29,1.38,5.29,5.29,0,0,0,1.84-.33,5,5,0,0,0,1.52-.87,7.16,7.16,0,0,0,1.35-1.76m0-3.33a5.24,5.24,0,0,0-.92-2,4.41,4.41,0,0,0-1.62-1.23,4.88,4.88,0,0,0-2.1-.47,4.52,4.52,0,0,0-3.13,1.17,5.3,5.3,0,0,0-1.45,2.56Z"></path> <polygon class="cls-4" points="191.5 173.51 193.11 173.51 193.11 178.98 199.03 173.51 200.97 173.51 195.12 179.02 201.41 185.88 199.38 185.88 194.02 179.89 193.11 180.66 193.11 185.88 191.5 185.88 191.5 180.66 190.61 179.89 185.29 185.88 183.24 185.88 189.45 179.01 183.71 173.51 185.65 173.51 191.5 178.97 191.5 173.51"></polygon> <path class="cls-4" d="M203.09,173.51h1.59v2.27a6.29,6.29,0,0,1,2.17-1.94,5.65,5.65,0,0,1,2.73-.65,6.09,6.09,0,0,1,4.51,1.9,6.25,6.25,0,0,1,1.88,4.57,6.38,6.38,0,0,1-1.86,4.63,6.28,6.28,0,0,1-7.2,1.29,6.82,6.82,0,0,1-2.23-1.83v6.65h-1.59Zm6.36,1.21a4.68,4.68,0,0,0-3.48,1.45,5,5,0,0,0-1.41,3.58,5.12,5.12,0,0,0,.63,2.54,4.56,4.56,0,0,0,1.81,1.78,5,5,0,0,0,2.47.66,4.74,4.74,0,0,0,2.42-.66,4.92,4.92,0,0,0,1.79-1.86,5,5,0,0,0,0-5,4.84,4.84,0,0,0-4.24-2.49Z"></path> <path class="cls-4" d="M229.36,181.77l1.34.71a7.28,7.28,0,0,1-1.52,2.09,6.19,6.19,0,0,1-2,1.21,6.7,6.7,0,0,1-2.45.41,5.92,5.92,0,0,1-4.73-2,6.76,6.76,0,0,1-.26-8.68,5.91,5.91,0,0,1,4.9-2.34,6.12,6.12,0,0,1,5.06,2.4,6.7,6.7,0,0,1,1.36,4.23H220a5,5,0,0,0,1.38,3.53,4.39,4.39,0,0,0,3.29,1.38,5.29,5.29,0,0,0,1.84-.33,5,5,0,0,0,1.52-.87,7.42,7.42,0,0,0,1.35-1.76m0-3.33a5.1,5.1,0,0,0-.93-2,4.29,4.29,0,0,0-1.61-1.23,5,5,0,0,0-2.1-.47,4.52,4.52,0,0,0-3.13,1.17,5.3,5.3,0,0,0-1.45,2.56Z"></path> <polygon class="cls-4" points="235.67 174.91 235.67 185.88 234.08 185.88 234.08 173.51 240.34 173.51 240.34 174.91 235.67 174.91"></polygon> <polygon class="cls-4" points="244.08 173.51 244.08 182.66 253.16 173.51 253.29 173.51 253.29 185.88 251.69 185.88 251.69 176.81 242.68 185.88 242.49 185.88 242.49 173.51 244.08 173.51"></polygon> <path class="cls-4" d="M262.69,173.19a6.12,6.12,0,0,1,4.74,2.07,6.63,6.63,0,0,1-.1,9,6.55,6.55,0,0,1-9.29,0,6.62,6.62,0,0,1-.1-9,6.12,6.12,0,0,1,4.75-2.08m0,1.55a4.61,4.61,0,0,0-3.42,1.47,5.14,5.14,0,0,0-.77,6,4.63,4.63,0,0,0,1.75,1.79,5,5,0,0,0,4.87,0,4.63,4.63,0,0,0,1.75-1.79,4.94,4.94,0,0,0,.65-2.5,4.87,4.87,0,0,0-1.43-3.55A4.58,4.58,0,0,0,262.69,174.74Z"></path> <polygon class="cls-4" points="280.87 179.92 273.68 179.92 273.68 185.88 272.08 185.88 272.08 173.51 273.68 173.51 273.68 178.42 280.87 178.42 280.87 173.51 282.46 173.51 282.46 185.88 280.87 185.88 280.87 179.92"></polygon> <path class="cls-4" d="M298.34,173.51v12.37h-1.57v-2.13a6.89,6.89,0,0,1-2.25,1.83,6.29,6.29,0,0,1-7.21-1.29,6.41,6.41,0,0,1-1.85-4.63,6.24,6.24,0,0,1,1.87-4.57,6.11,6.11,0,0,1,4.52-1.9,5.73,5.73,0,0,1,2.75.65,6.2,6.2,0,0,1,2.17,1.94v-2.27ZM292,174.72a4.84,4.84,0,0,0-4.25,2.49,5.11,5.11,0,0,0,1.81,6.86,4.72,4.72,0,0,0,2.43.66,4.94,4.94,0,0,0,2.47-.66,4.6,4.6,0,0,0,1.8-1.78,5.12,5.12,0,0,0,.63-2.54,4.91,4.91,0,0,0-1.41-3.58A4.68,4.68,0,0,0,292,174.72Z"></path> <polygon class="cls-4" points="312.4 185.88 310.7 185.88 306.56 176.87 302.45 185.88 300.75 185.88 306.42 173.51 306.7 173.51 312.4 185.88"></polygon> <path class="cls-4" d="M316.41,178.41h1.51a11.07,11.07,0,0,1,2.83.28,3.31,3.31,0,0,1,1.76,1.26,3.58,3.58,0,0,1,.74,2.23,3.55,3.55,0,0,1-1.07,2.61,4.33,4.33,0,0,1-3.24,1.09h-4.11V173.51h1.58Zm0,1.45v4.68h1.83c2.16,0,3.23-.76,3.23-2.28a2.6,2.6,0,0,0-.34-1.27,1.89,1.89,0,0,0-1-.88,7.8,7.8,0,0,0-2.35-.25Z"></path> <polygon class="cls-4" points="334.59 179.92 327.39 179.92 327.39 185.88 325.8 185.88 325.8 173.51 327.39 173.51 327.39 178.42 334.59 178.42 334.59 173.51 336.18 173.51 336.18 185.88 334.59 185.88 334.59 179.92"></polygon> <path class="cls-4" d="M341.31,178.41h1.51a11.11,11.11,0,0,1,2.84.28,3.37,3.37,0,0,1,1.77,1.26,3.72,3.72,0,0,1-.33,4.84,4.37,4.37,0,0,1-3.25,1.09h-4.12V173.51h1.58Zm.06,1.45v4.68h1.83q3.24,0,3.24-2.28a2.62,2.62,0,0,0-.35-1.27,1.89,1.89,0,0,0-1-.88,7.83,7.83,0,0,0-2.36-.25Zm9-6.35H352v12.37h-1.59Z"></path> <path class="cls-4" d="M356.94,173.51v9.15l9.09-9.15h.12v12.37h-1.59v-9.07l-9,9.07h-.2V173.51Zm-.22-5h1.5a2.32,2.32,0,0,0,1,.88,3.7,3.7,0,0,0,1.55.3,3.59,3.59,0,0,0,1.47-.26,3,3,0,0,0,1.05-.92h1.46a2.91,2.91,0,0,1-1.28,1.71,4.8,4.8,0,0,1-2.71.69,5,5,0,0,1-2.73-.68A2.9,2.9,0,0,1,356.72,168.54Z"></path> <polygon class="cls-4" points="376.15 173.51 377.74 173.51 377.74 178.72 383.47 173.51 385.69 173.51 379.41 179.17 386.19 185.88 383.93 185.88 378.24 180.16 377.74 180.6 377.74 185.88 376.15 185.88 376.15 173.51"></polygon> <polygon class="cls-4" points="398.31 185.88 396.62 185.88 392.48 176.87 388.37 185.88 386.66 185.88 392.34 173.51 392.62 173.51 398.31 185.88"></polygon> <polygon class="cls-4" points="399.41 173.51 401.1 173.51 405.35 183.03 409.48 173.51 411.17 173.51 403.79 190.41 402.11 190.41 404.49 184.94 399.41 173.51"></polygon> <path class="cls-4" d="M425.08,168.47V170a31.67,31.67,0,0,1-3.91.27,23.5,23.5,0,0,0-3.09.27,4.81,4.81,0,0,0-1.9.76,4.36,4.36,0,0,0-1.36,1.71,7.38,7.38,0,0,0-.69,2.55l-.16,1.74a5.51,5.51,0,0,1,2.14-3.11,5.81,5.81,0,0,1,3.29-1,6.11,6.11,0,0,1,4.61,1.93,6.42,6.42,0,0,1,1.85,4.61,6.31,6.31,0,0,1-1.84,4.55,6.13,6.13,0,0,1-4.62,1.91,6.3,6.3,0,0,1-4.8-2.11c-1.32-1.41-2-3.63-2-6.66a12.43,12.43,0,0,1,.72-4.81,5.94,5.94,0,0,1,1.66-2.35,7.1,7.1,0,0,1,2.41-1.12,26.15,26.15,0,0,1,5.55-.51,18.45,18.45,0,0,0,2.11-.16m-.83,11.29a4.91,4.91,0,0,0-1.44-3.54,4.65,4.65,0,0,0-6.8,0,4.91,4.91,0,0,0-1.44,3.54,4.85,4.85,0,0,0,1.39,3.49,4.88,4.88,0,0,0,6.9,0A4.85,4.85,0,0,0,424.25,179.76Z"></path> <polygon class="cls-4" points="445.73 185.88 444.04 185.88 439.89 176.87 435.79 185.88 434.08 185.88 439.75 173.51 440.04 173.51 445.73 185.88"></polygon> <polygon class="cls-4" points="449.75 173.51 449.75 182.66 458.84 173.51 458.96 173.51 458.96 185.88 457.37 185.88 457.37 176.81 448.36 185.88 448.16 185.88 448.16 173.51 449.75 173.51"></polygon> <path class="cls-4" d="M462.61,184.52l4.77-11h.83l4.75,11h1.49v2.94h-1.53v-1.58H462.68v1.65h-1.57v-3Zm5.17-8.56-3.62,8.56h7.09Z"></path> <path class="cls-4" d="M487,181.77l1.34.71a7.3,7.3,0,0,1-1.53,2.09,6,6,0,0,1-1.94,1.21,6.77,6.77,0,0,1-2.45.41,5.93,5.93,0,0,1-4.74-2,6.72,6.72,0,0,1-1.7-4.48,6.64,6.64,0,0,1,1.44-4.2,5.92,5.92,0,0,1,4.91-2.34,6.1,6.1,0,0,1,5,2.4,6.7,6.7,0,0,1,1.37,4.23H477.63a5.08,5.08,0,0,0,1.38,3.53,4.4,4.4,0,0,0,3.29,1.38,5.29,5.29,0,0,0,1.84-.33,5,5,0,0,0,1.52-.87,7.41,7.41,0,0,0,1.36-1.76m0-3.33a5.39,5.39,0,0,0-.93-2,4.46,4.46,0,0,0-1.61-1.23,5,5,0,0,0-2.11-.47,4.54,4.54,0,0,0-3.13,1.17,5.3,5.3,0,0,0-1.45,2.56Z"></path> <path class="cls-4" d="M491.76,173.51h1.59v2.27a6.29,6.29,0,0,1,2.17-1.94,5.69,5.69,0,0,1,2.74-.65,6.07,6.07,0,0,1,4.5,1.9,6.21,6.21,0,0,1,1.88,4.57,6.38,6.38,0,0,1-1.86,4.63,6.26,6.26,0,0,1-7.19,1.29,6.75,6.75,0,0,1-2.24-1.83v6.65h-1.59Zm6.37,1.21a4.65,4.65,0,0,0-3.48,1.45,4.87,4.87,0,0,0-1.41,3.58,5.11,5.11,0,0,0,.62,2.54,4.56,4.56,0,0,0,1.81,1.78,5,5,0,0,0,2.48.66,4.73,4.73,0,0,0,2.41-.66,5,5,0,0,0,1.8-1.86,5.12,5.12,0,0,0,.67-2.5,5,5,0,0,0-.67-2.5,4.8,4.8,0,0,0-4.23-2.49Z"></path> <path class="cls-4" d="M513.48,173.19a6.11,6.11,0,0,1,4.73,2.07,6.65,6.65,0,0,1-.09,9,6.57,6.57,0,0,1-9.3,0,6.64,6.64,0,0,1-.09-9,6.1,6.1,0,0,1,4.75-2.08m0,1.55a4.59,4.59,0,0,0-3.41,1.47,4.91,4.91,0,0,0-1.43,3.55,5,5,0,0,0,.65,2.5,4.59,4.59,0,0,0,1.76,1.79,5,5,0,0,0,4.86,0,4.66,4.66,0,0,0,1.76-1.79,5,5,0,0,0,.65-2.5,4.91,4.91,0,0,0-1.43-3.55A4.6,4.6,0,0,0,513.47,174.74Z"></path> <path class="cls-4" d="M524.46,174.88v3.85h1a9,9,0,0,0,1.85-.11,1.64,1.64,0,0,0,.81-.56,1.78,1.78,0,0,0,.38-1.18,2.06,2.06,0,0,0-.4-1.3,1.47,1.47,0,0,0-.84-.61,11.15,11.15,0,0,0-1.8-.09Zm6.43,6.75v1.68q-.52,2.56-4.43,2.57h-3.59V173.51h3.53a3.9,3.9,0,0,1,2.92.93,3.05,3.05,0,0,1,.89,2.18,2.51,2.51,0,0,1-1.66,2.55A3.27,3.27,0,0,1,530.89,181.63Zm-6.43-1.43v4.34h1.71a6.91,6.91,0,0,0,1.73-.16,1.7,1.7,0,0,0,.89-.66,2.22,2.22,0,0,0,.37-1.3,2.13,2.13,0,0,0-.64-1.61,2.34,2.34,0,0,0-1.69-.61Z"></path> <g class="cls-5"> <rect class="cls-6" width="128.86" height="191.01"></rect> </g> </g> </g> </svg> 